<svg width="29" height="23" viewBox="0 0 29 23" fill="none" xmlns="http://www.w3.org/2000/svg">
<path d="M28.7713 6.90571C24.9593 3.09373 19.8911 0.994385 14.5 0.994385C9.10909 0.994385 4.04076 3.09383 0.228684 6.90571C-0.076228 7.21072 -0.076228 7.70498 0.228684 8.00999C0.533693 8.31481 1.02805 8.31481 1.33306 8.00999C4.84999 4.49287 9.52615 2.55594 14.5 2.55594C19.4739 2.55594 24.15 4.49287 27.6669 8.00999C27.8195 8.16245 28.0192 8.23868 28.2191 8.23868C28.4189 8.23868 28.6188 8.16245 28.7712 8.00999C29.0762 7.70508 29.0762 7.21072 28.7713 6.90571Z" fill="#1F0C40"/>
<path d="M14.4941 6.66284C10.5713 6.66284 6.88318 8.37143 4.10937 11.4738C3.83568 11.7799 3.83568 12.2761 4.10946 12.5822C4.24631 12.7353 4.42555 12.8118 4.60498 12.8118C4.78432 12.8118 4.96374 12.7353 5.10059 12.5821C7.60964 9.77588 10.9456 8.23053 14.4941 8.23053C18.0425 8.23053 21.3785 9.77588 23.8875 12.5821C24.1613 12.8883 24.605 12.8884 24.8786 12.5822C25.1524 12.2761 25.1524 11.7799 24.8787 11.4738C22.105 8.37133 18.417 6.66284 14.4941 6.66284Z" fill="#1F0C40"/>
<path d="M14.5428 13.6899C12.4816 13.6899 10.5439 14.5068 9.08647 15.9901C8.81365 16.2677 8.81365 16.7178 9.08656 16.9954C9.22297 17.1342 9.40174 17.2037 9.58051 17.2037C9.75936 17.2037 9.93821 17.1342 10.0745 16.9953C11.2679 15.7807 12.8548 15.1118 14.5428 15.1118C16.2307 15.1118 17.8176 15.7807 19.0111 16.9953C19.2841 17.273 19.7264 17.2731 19.9991 16.9954C20.272 16.7178 20.272 16.2677 19.9992 15.9901C18.5419 14.5069 16.604 13.6899 14.5428 13.6899Z" fill="#1F0C40"/>
<path d="M14.4931 22.0057C14.9507 22.0057 15.3217 21.6347 15.3217 21.177C15.3217 20.7194 14.9507 20.3484 14.4931 20.3484C14.0354 20.3484 13.6644 20.7194 13.6644 21.177C13.6644 21.6347 14.0354 22.0057 14.4931 22.0057Z" fill="#1F0C40"/>
</svg>
