<svg width="27" height="26" viewBox="0 0 27 26" fill="none" xmlns="http://www.w3.org/2000/svg">
<g opacity="0.7">
<path d="M25.8394 6.64793H14.8118L20.1515 0.998363C20.4087 0.815791 20.4621 0.468855 20.2708 0.223348C20.0794 -0.0221588 19.7159 -0.0730465 19.4586 0.109526C19.402 0.149682 19.3536 0.199393 19.3156 0.256165L13.5117 6.34883L7.70773 0.256165C7.50705 0.0176512 7.14169 -0.020428 6.89176 0.171076C6.64183 0.362579 6.60193 0.711246 6.8026 0.94976C6.81696 0.966792 6.83234 0.983062 6.84867 0.998363L12.1883 6.64793H1.16079C0.519672 6.64793 0 7.14386 0 7.75568V24.6933C0 25.3051 0.519672 25.8011 1.16079 25.8011H25.8392C26.4803 25.8011 27 25.3051 27 24.6933V7.73907C26.9906 7.13382 26.4737 6.64793 25.8394 6.64793ZM25.8394 24.6767H1.22478V7.73907H13.5001H13.5524H13.6046H25.8626L25.8394 24.6767Z" fill="#1F0C40"/>
<path d="M22.92 8.90796H4.10359C3.46928 8.91703 2.96013 9.41033 2.96021 10.0157V22.417C2.96021 23.0289 3.47988 23.5248 4.121 23.5248H22.92C23.5611 23.5248 24.0808 23.0289 24.0808 22.417V10.0157C24.0808 9.40389 23.5611 8.90796 22.92 8.90796ZM22.9026 22.3948H4.11519V10.0156H22.92L22.9026 22.3948Z" fill="#1F0C40"/>
</g>
</svg>
