<svg width="22" height="22" viewBox="0 0 22 22" fill="none" xmlns="http://www.w3.org/2000/svg">
<path d="M21.5668 0.0830011C21.3453 -0.0279926 21.0845 -0.0279926 20.863 0.0830011L0.435076 10.297C0.0470359 10.4912 -0.110086 10.9631 0.0840952 11.3512C0.194629 11.5721 0.402621 11.7281 0.645601 11.7725L8.75311 13.2472L10.2278 21.3547C10.2882 21.687 10.5543 21.9436 10.8886 21.9919C10.9256 21.9972 10.9629 21.9999 11.0001 21.9998C11.298 21.9999 11.5702 21.8317 11.7034 21.5653L21.9173 1.13737C22.1117 0.749424 21.9548 0.277367 21.5668 0.0830011ZM11.3514 18.7541L10.2011 12.4308C10.1417 12.1115 9.89187 11.8617 9.5726 11.8023L3.24629 10.6489L19.4573 2.543L11.3514 18.7541Z" fill="white"/>
</svg>
