<svg width="23" height="14" viewBox="0 0 23 14" fill="none" xmlns="http://www.w3.org/2000/svg">
<path opacity="0.7" d="M22.7613 1.24867C22.6132 1.16391 22.4301 1.1606 22.279 1.24022L17.0018 4.02367V2.35356C17.0003 1.05432 15.9103 0.00147097 14.5653 0H2.43644C1.09145 0.00147097 0.00152278 1.05432 0 2.35356V11.6464C0.00152278 12.9457 1.09145 13.9985 2.43644 14H14.5653C15.9103 13.9985 17.0003 12.9457 17.0018 11.6464V10.0067L22.2792 12.7901C22.4301 12.8697 22.6134 12.8666 22.7613 12.7818C22.9094 12.6969 23 12.543 23 12.377V1.65338C23 1.48716 22.9092 1.33344 22.7613 1.24867ZM16.0268 11.6466C16.0261 12.4262 15.372 13.0578 14.565 13.0588H2.43644C1.62937 13.0578 0.975528 12.4262 0.974576 11.6466V2.35356C0.975528 1.57413 1.62937 0.942343 2.43644 0.941424H14.5653C15.3722 0.942343 16.0263 1.57413 16.0272 2.35356L16.0268 11.6466ZM22.0254 11.5837L17.0018 8.93415V5.09619L22.0254 2.44678V11.5837Z" fill="#1F0C40"/>
</svg>
