<svg width="241" height="241" viewBox="0 0 241 241" fill="none" xmlns="http://www.w3.org/2000/svg">
<path d="M236.748 168.71H208.691V119.811C225.346 116.639 238.145 103.237 240.548 86.4551C243.849 64.5146 228.738 44.0532 206.797 40.7525C204.824 40.4554 202.831 40.3061 200.835 40.3056C194.189 40.2895 187.646 41.9434 181.805 45.1153C173.266 18.4352 148.525 0.282943 120.513 0.144161C97.55 0.100072 76.3245 12.3629 64.8918 32.2773C47.0872 32.0093 32.437 46.2256 32.169 64.0297C32.167 64.1514 32.1659 64.2726 32.1654 64.3944V64.6629C22.7764 63.3207 13.3393 66.7712 7.0305 73.8536C4.32251 76.8466 2.33248 80.4174 1.2107 84.2947C-3.28741 99.1854 5.13766 114.903 20.0283 119.401C21.2178 119.76 22.4297 120.04 23.6562 120.24C25.2008 120.484 26.762 120.608 28.3257 120.612H32.3338V168.71H4.27692C2.06343 168.71 0.268793 170.504 0.268793 172.718V220.815C0.268793 223.029 2.06343 224.824 4.27692 224.824H32.3338V232.84H20.3094C18.0959 232.84 16.3013 234.634 16.3013 236.848C16.3013 239.061 18.0959 240.856 20.3094 240.856H52.3744C54.5879 240.856 56.3825 239.061 56.3825 236.848C56.3825 234.634 54.5879 232.84 52.3744 232.84H40.35V224.824H68.4069C70.6204 224.824 72.415 223.029 72.415 220.815V172.718C72.415 170.504 70.6204 168.71 68.4069 168.71H40.35V120.612H116.504V168.71H88.4475C86.234 168.71 84.4394 170.504 84.4394 172.718V220.815C84.4394 223.029 86.234 224.824 88.4475 224.824H116.504V232.84H104.48C102.267 232.84 100.472 234.634 100.472 236.848C100.472 239.061 102.267 240.856 104.48 240.856H136.545C138.759 240.856 140.553 239.061 140.553 236.848C140.553 234.634 138.759 232.84 136.545 232.84H124.521V224.824H152.578C154.791 224.824 156.586 223.029 156.586 220.815V172.718C156.586 170.504 154.791 168.71 152.578 168.71H124.521V120.612H200.675V168.71H172.618C170.405 168.71 168.61 170.504 168.61 172.718V220.815C168.61 223.029 170.405 224.824 172.618 224.824H200.675V232.84H188.651C186.437 232.84 184.643 234.634 184.643 236.848C184.643 239.061 186.437 240.856 188.651 240.856H220.716C222.929 240.856 224.724 239.061 224.724 236.848C224.724 234.634 222.929 232.84 220.716 232.84H208.691V224.824H236.748C238.962 224.824 240.756 223.029 240.756 220.815V172.718C240.756 170.504 238.962 168.71 236.748 168.71ZM64.3988 176.726V216.807H8.28504V176.726H64.3988ZM148.569 176.726V216.807H92.4557V176.726H148.569ZM28.3257 112.596C27.1864 112.593 26.0485 112.503 24.9228 112.328C19.2478 111.407 14.2386 108.099 11.1629 103.241C8.02401 98.2555 7.20385 92.1527 8.91432 86.5152C9.68939 83.8183 11.0732 81.3352 12.9585 79.2565C16.7768 74.9092 22.2829 72.4172 28.0691 72.4187C30.5361 72.4076 32.9831 72.859 35.2838 73.7494C37.3429 74.561 39.6707 73.5499 40.4823 71.4903C40.7659 70.7713 40.835 69.9857 40.6827 69.2282C40.3621 67.637 40.1997 66.0177 40.1977 64.3944C40.2108 51.0869 50.9951 40.3026 64.3026 40.2895C65.0822 40.282 65.8613 40.3236 66.6353 40.4138C68.3077 40.6157 69.935 39.7795 70.7436 38.3015C85.1704 10.8063 119.155 0.211799 146.651 14.6385C161.319 22.3346 171.847 36.1081 175.424 52.2818C175.9 54.4437 178.039 55.8105 180.201 55.3345C180.755 55.2123 181.278 54.9738 181.733 54.6346C187.244 50.5163 193.944 48.3008 200.824 48.3218C218.573 48.3629 232.928 62.7841 232.887 80.5331C232.846 98.2821 218.424 112.637 200.676 112.596H28.3257ZM232.74 216.807H176.626V176.726H232.74V216.807Z" fill="#1F0C40"/>
</svg>
