<svg width="40" height="40" viewBox="0 0 40 40" fill="none" xmlns="http://www.w3.org/2000/svg">
<g clip-path="url(#clip0)">
<path d="M17.515 9.06861C17.724 9.06861 17.921 8.96995 18.0458 8.80239C18.171 8.63482 18.2098 8.41841 18.1503 8.21786C17.6754 6.59624 16.8548 5.09691 15.7442 3.82368C14.8495 2.87168 13.5177 2.46409 12.2435 2.75231C12.0676 2.8196 11.9288 2.95869 11.8615 3.13467C11.8249 3.23365 11.7978 3.33587 11.7806 3.44003C11.7603 3.5636 11.7493 3.68847 11.7473 3.81365V3.82433C11.7554 4.88082 12.1811 5.89138 12.9319 6.63506C14.2051 7.7446 15.7035 8.56495 17.3241 9.0395C17.3862 9.05794 17.4503 9.06797 17.515 9.06861ZM13.8713 5.69696C13.6083 5.43365 13.4019 5.1189 13.2644 4.77278V4.76631C13.2353 4.69288 13.2101 4.61912 13.1884 4.54828C13.1771 4.50979 13.169 4.47356 13.1593 4.43571C13.1493 4.39786 13.1405 4.3694 13.1341 4.3364C13.1273 4.30308 13.126 4.28982 13.1215 4.26621C13.1021 4.16722 13.0885 4.06726 13.081 3.96666C13.7345 4.01615 14.3481 4.29823 14.8113 4.76178C15.4699 5.50643 16.0008 6.35493 16.3822 7.27329C15.4628 6.89061 14.613 6.35784 13.8681 5.69696H13.8713Z" fill="#1F0C40"/>
<path d="M37.8468 9.52561H27.6206C28.0628 9.22347 28.4782 8.8835 28.8615 8.50987C31.2313 6.13293 31.309 2.52903 29.7951 1.01514C28.2812 -0.498756 24.6786 -0.422414 22.299 1.95C21.326 3.00908 20.5354 4.22213 19.9596 5.53999C19.3838 4.22116 18.5926 3.00746 17.6186 1.94806C15.2416 -0.421767 11.6381 -0.499402 10.1239 1.01449C8.60931 2.52838 8.68759 6.13229 11.0577 8.50987C11.4414 8.8835 11.8567 9.22347 12.2986 9.52561H2.0724C1.70654 9.52561 1.40991 9.82224 1.40991 10.1881V16.813C1.40991 17.1789 1.70654 17.4755 2.0724 17.4755H3.39738V36.6877C3.39965 38.516 4.88151 39.9979 6.70983 40.0001H33.2094C35.0381 39.9979 36.5199 38.516 36.5219 36.6877V17.4755H37.8468C38.2127 17.4755 38.5093 17.1789 38.5093 16.813V10.1881C38.5093 9.82224 38.2127 9.52561 37.8468 9.52561ZM23.2365 2.88615C25.1405 0.987965 27.9176 1.00996 28.8589 1.95129C29.8002 2.89262 29.8229 5.66842 27.9247 7.57307C27.0555 8.3766 26.0631 9.03553 24.9852 9.52561H21.0265C21.0265 9.5117 21.0265 9.49649 21.0265 9.48258C21.0265 9.33152 21.0151 9.17851 21.0006 9.02453C20.9951 8.97375 20.9893 8.92328 20.9834 8.87153C20.9682 8.7444 20.9495 8.61759 20.9268 8.49144C20.9197 8.44712 20.9123 8.40248 20.9045 8.35881C20.8728 8.19383 20.8382 8.03145 20.7984 7.87456C20.7932 7.85191 20.7871 7.83218 20.7819 7.80824C20.7467 7.67109 20.7104 7.54331 20.6732 7.41101C20.668 7.39289 20.6632 7.37316 20.658 7.35505C21.2008 5.704 22.0788 4.18234 23.2365 2.88615ZM22.6096 16.1505H17.3097V10.8506H22.6096V16.1505ZM11.9952 7.57372C10.0967 5.66906 10.119 2.89327 11.0607 1.95129C12.002 1.00931 14.7778 0.987318 16.6811 2.88421C17.8864 4.23442 18.7899 5.8266 19.3311 7.55399C19.4058 7.78657 19.4634 8.00977 19.5177 8.2265C19.533 8.28861 19.5456 8.34878 19.5588 8.40992C19.5947 8.57166 19.6235 8.72596 19.6452 8.87379C19.6523 8.92393 19.6617 8.97569 19.6675 9.02453C19.6885 9.18983 19.6999 9.35643 19.7015 9.52302H14.934C13.8568 9.03391 12.8647 8.37595 11.9952 7.57372ZM2.73489 10.8506H15.9847V16.1505H2.73489V10.8506ZM4.72236 36.6877V17.4755H17.3097V38.6752H6.70983C5.61226 38.6752 4.72236 37.7853 4.72236 36.6877ZM18.6346 38.6752V17.4755H21.2846V38.6752H18.6346ZM35.1969 36.6877C35.1969 37.7853 34.3073 38.6752 33.2094 38.6752H22.6096V17.4755H35.1969V36.6877ZM37.1844 16.1505H23.9346V10.8506H37.1844V16.1505Z" fill="#1F0C40"/>
<path d="M22.4023 9.07034C22.466 9.07034 22.5294 9.06128 22.5905 9.04316C24.2131 8.56894 25.7131 7.74697 26.986 6.6342C27.9286 5.73265 28.3349 4.40638 28.0593 3.13154C27.9927 2.95621 27.8539 2.81776 27.6786 2.7508C26.4037 2.4752 25.0775 2.88149 24.1759 3.82411C23.0635 5.09701 22.2415 6.597 21.767 8.21958C21.7078 8.42014 21.7463 8.63687 21.8714 8.80411C21.9966 8.97167 22.1933 9.07034 22.4023 9.07034ZM25.1127 4.76092C25.5766 4.29769 26.1909 4.01594 26.8443 3.9658C26.7948 4.61955 26.5128 5.23417 26.0495 5.69804C25.3042 6.36118 24.4532 6.89492 23.5319 7.2776C23.9149 6.35633 24.4493 5.50589 25.1127 4.76092Z" fill="#1F0C40"/>
</g>
<defs>
<clipPath id="clip0">
<rect width="40" height="40" fill="white"/>
</clipPath>
</defs>
</svg>
