<svg width="81" height="111" viewBox="0 0 81 111" fill="none" xmlns="http://www.w3.org/2000/svg">
<path d="M76.7083 30.1284C74.6058 28.026 73.4354 25.2299 73.4354 22.2387C73.4354 14.1539 66.8461 7.56463 58.7613 7.56463C55.7918 7.56463 52.974 6.39417 50.8716 4.29168C45.1493 -1.43056 35.8507 -1.43056 30.1284 4.29168C28.026 6.39417 25.2299 7.56463 22.2387 7.56463C14.1539 7.56463 7.56462 14.1539 7.56462 22.2387C7.56462 25.2082 6.41584 28.026 4.29168 30.1284C1.51726 32.9029 0 36.5876 0 40.5108C0 44.434 1.51726 48.1188 4.29168 50.8932C6.39417 52.9957 7.56462 55.7918 7.56462 58.783C7.56462 65.4373 12.008 71.0511 18.0771 72.8502L9.55874 104.669L22.4121 97.5165L29.955 110.153L37.8231 80.7833C38.7118 80.935 39.6005 81.0217 40.4892 81.0217C41.3778 81.0217 42.2665 80.935 43.1552 80.7833L51.045 110.131L58.5879 97.4948L71.4413 104.648L62.9229 72.8285C68.992 71.0294 73.4354 65.4156 73.4354 58.7613C73.4354 55.7918 74.6058 52.974 76.7083 50.8716C82.4306 45.171 82.4306 35.8507 76.7083 30.1284ZM28.7412 101.18L23.7126 92.7696L15.1509 97.5381L21.6101 73.4354C21.8485 73.4571 22.0653 73.4571 22.282 73.4571C25.2515 73.4571 28.0693 74.6275 30.1718 76.73C30.5186 77.0768 30.8654 77.3803 31.2339 77.6837C31.3423 77.7704 31.4506 77.8571 31.559 77.9438C31.8191 78.1389 32.0792 78.334 32.361 78.529C32.5127 78.6374 32.6861 78.7241 32.8378 78.8325C33.0763 78.9625 33.293 79.1143 33.5314 79.2443C33.7265 79.3527 33.9433 79.4611 34.1383 79.5478C34.225 79.5911 34.3551 79.6562 34.4851 79.6995L28.7412 101.18ZM65.9141 97.5381L57.3524 92.7696L52.3238 101.18L46.5799 79.6995C46.7099 79.6345 46.8183 79.5695 46.9484 79.5261C47.1651 79.4177 47.3602 79.331 47.5769 79.201C47.8154 79.0709 48.0321 78.9409 48.2489 78.8108C48.4223 78.7024 48.574 78.6157 48.7474 78.5074C49.0075 78.334 49.2459 78.1389 49.506 77.9438C49.6361 77.8571 49.7661 77.7704 49.8745 77.662C50.243 77.3586 50.5898 77.0551 50.9366 76.7083C53.0391 74.6058 55.8352 73.4354 58.8263 73.4354C58.9997 73.4571 59.2165 73.4354 59.4549 73.4354L65.9141 97.5381ZM74.2157 48.4006C71.4413 51.175 69.924 54.8598 69.924 58.783C69.924 64.1584 66.1092 68.6452 61.0372 69.7073L60.4736 69.794C60.1702 69.8373 59.9101 69.8807 59.6283 69.9023C59.3465 69.924 59.0431 69.9457 58.7613 69.9457C57.2874 69.9457 55.8568 70.1624 54.4913 70.5743C52.2154 71.2679 50.1129 72.5033 48.4006 74.2374C48.0971 74.5408 47.7937 74.8009 47.4686 75.061C47.3602 75.1477 47.2518 75.2127 47.1434 75.2994C46.9267 75.4728 46.6883 75.6246 46.4498 75.7763C46.3414 75.8413 46.2114 75.928 46.0814 75.993C45.8213 76.1448 45.5611 76.2748 45.301 76.4049C45.1927 76.4482 45.106 76.4916 44.9976 76.5566C44.6725 76.7083 44.3257 76.8384 44.0005 76.9468C43.9355 76.9684 43.8488 77.0118 43.7838 77.0335L43.6537 77.0768C41.6163 77.662 39.4271 77.662 37.3896 77.0768L37.2162 77.0335C37.1512 77.0118 37.1078 76.9901 37.0428 76.9684C36.696 76.8601 36.3492 76.7083 36.0024 76.5783C35.9157 76.5349 35.8073 76.4916 35.7206 76.4482C35.4389 76.3182 35.1788 76.1665 34.9187 76.0147C34.8103 75.9497 34.7019 75.8847 34.5935 75.8196C34.3334 75.6679 34.095 75.4945 33.8566 75.3211C33.7699 75.2561 33.6615 75.1911 33.5748 75.1044C33.2497 74.8443 32.9462 74.5625 32.6428 74.2807C30.9088 72.5467 28.8279 71.3112 26.552 70.6176C25.1865 70.2058 23.756 69.989 22.282 69.989C21.9786 69.989 21.6968 69.9674 21.415 69.9457C21.1549 69.924 20.8732 69.8807 20.5697 69.8373L20.0062 69.7506C14.9342 68.6885 11.1193 64.2018 11.1193 58.8263C11.1193 54.9031 9.60209 51.2184 6.82767 48.4439C4.72518 46.3415 3.55472 43.5454 3.55472 40.5542C3.55472 37.5847 4.72518 34.7669 6.82767 32.6644C9.60209 29.89 11.1193 26.2052 11.1193 22.282C11.1193 16.1263 16.1263 11.141 22.2604 11.141C26.1836 11.141 29.8683 9.62376 32.6428 6.84935C34.8103 4.68183 37.6714 3.59807 40.5325 3.59807C43.3936 3.59807 46.2547 4.68183 48.4223 6.84935C51.1967 9.62376 54.8815 11.141 58.8047 11.141C64.9604 11.141 69.9457 16.148 69.9457 22.282C69.9457 26.2052 71.4629 29.89 74.2374 32.6644C78.5724 36.9778 78.5724 44.0439 74.2157 48.4006Z" fill="#1F0C40"/>
<path d="M40.511 14.1104C25.9453 14.1104 14.089 25.9667 14.089 40.5323C14.089 55.098 25.9453 66.9327 40.511 66.9327C55.0767 66.9327 66.933 55.0764 66.933 40.5107C66.933 25.945 55.0767 14.1104 40.511 14.1104ZM40.511 63.3996C27.8961 63.3996 17.622 53.1256 17.622 40.5107C17.622 27.8957 27.8961 17.6217 40.511 17.6217C53.1259 17.6217 63.3999 27.8957 63.3999 40.5107C63.3999 53.1256 53.1259 63.3996 40.511 63.3996Z" fill="#1F0C40"/>
<path d="M40.5111 22.499L36.5879 34.5938H23.8646L34.1603 42.0717L30.2371 54.1664L40.5328 46.6885L50.8285 54.1664L46.8836 42.0717L57.1793 34.5938H44.456L40.5111 22.499ZM44.1092 44.9545L40.5111 42.3318L36.9131 44.9545L38.2786 40.7278L34.6805 38.1051H39.1239L40.4895 33.8785L41.855 38.1051H46.2984L42.7003 40.7278L44.1092 44.9545Z" fill="#1F0C40"/>
</svg>
