<svg width="44" height="44" viewBox="0 0 44 44" fill="none" xmlns="http://www.w3.org/2000/svg">
<g clip-path="url(#clip0)">
<path d="M22 43.3402C33.7857 43.3402 43.34 33.7859 43.34 22.0002C43.34 10.2144 33.7857 0.660156 22 0.660156C10.2142 0.660156 0.659973 10.2144 0.659973 22.0002C0.659973 33.7859 10.2142 43.3402 22 43.3402Z" stroke="#1F0C40" stroke-width="3"/>
<path d="M21.0716 17.6309H22.5016V32.5601H21.0716V17.6309ZM21.7866 13.9987C21.4625 13.9987 21.186 13.8939 20.9572 13.6841C20.7284 13.4553 20.614 13.1789 20.614 12.8547C20.614 12.5306 20.7284 12.2541 20.9572 12.0253C21.186 11.7965 21.4625 11.6821 21.7866 11.6821C22.1108 11.6821 22.3872 11.7965 22.616 12.0253C22.8448 12.2351 22.9592 12.502 22.9592 12.8261C22.9592 13.1503 22.8448 13.4267 22.616 13.6555C22.3872 13.8843 22.1108 13.9987 21.7866 13.9987Z" fill="#1F0C40"/>
</g>
<defs>
<clipPath id="clip0">
<rect width="44" height="44" fill="white"/>
</clipPath>
</defs>
</svg>
