<svg width="27" height="26" viewBox="0 0 27 26" fill="none" xmlns="http://www.w3.org/2000/svg">
<g opacity="0.7">
<path d="M25.8394 6.64793H14.8118L20.1515 0.998363C20.4087 0.815791 20.4621 0.468855 20.2708 0.223348C20.0794 -0.0221588 19.7159 -0.0730465 19.4586 0.109526C19.402 0.149682 19.3536 0.199393 19.3156 0.256165L13.5117 6.34883L7.70773 0.256165C7.50705 0.0176512 7.14169 -0.020428 6.89176 0.171076C6.64183 0.362579 6.60193 0.711246 6.8026 0.94976C6.81696 0.966792 6.83234 0.983062 6.84867 0.998363L12.1883 6.64793H1.16079C0.519672 6.64793 0 7.14386 0 7.75568V24.6933C0 25.3051 0.519672 25.8011 1.16079 25.8011H25.8392C26.4803 25.8011 27 25.3051 27 24.6933V7.73907C26.9906 7.13382 26.4737 6.64793 25.8394 6.64793ZM25.8394 24.6767H1.22478V7.73907H13.5001H13.5524H13.6046H25.8626L25.8394 24.6767Z" fill="#1F0C40"/>
<path d="M22.92 8.90771H4.10352C3.46922 8.91678 2.96007 9.41008 2.96014 10.0155V22.4168C2.96014 23.0286 3.47982 23.5245 4.12094 23.5245H22.92C23.5611 23.5245 24.0807 23.0286 24.0807 22.4168V10.0155C24.0807 9.40364 23.561 8.90771 22.92 8.90771ZM22.9025 22.3946H4.11513V10.0154H22.92L22.9025 22.3946Z" fill="#1F0C40"/>
<path d="M16.902 17.0778C17.0142 17.1858 17.0411 17.3525 16.9643 17.4859C16.7002 17.944 16.039 18.147 15.5396 17.7939C14.3742 16.969 12.7764 16.9783 11.6241 17.7939C11.1254 18.1466 10.4637 17.9444 10.1995 17.4859C10.1226 17.3526 10.1494 17.1859 10.2616 17.0778C12.0898 15.3166 15.0719 15.3145 16.902 17.0778Z" fill="#1F0C40"/>
<path d="M17.3756 16.5549C15.2446 14.5566 11.8892 14.586 9.78817 16.5548C9.69688 16.6404 9.56591 16.6758 9.44193 16.6457C9.0576 16.5523 8.76855 16.2384 8.73193 15.8588C8.72186 15.7546 8.76225 15.6514 8.84078 15.5784C11.4823 13.1205 15.6844 13.1235 18.3229 15.5784C18.4014 15.6514 18.4418 15.7545 18.4318 15.8587C18.3951 16.2378 18.1067 16.5522 17.7219 16.6456C17.5979 16.6758 17.4668 16.6405 17.3756 16.5549Z" fill="#1F0C40"/>
<path d="M19.5282 15.1143C19.4965 15.1442 19.4638 15.1715 19.4302 15.1964C19.286 15.3035 19.0794 15.2883 18.9511 15.1642C15.9975 12.3072 11.1691 12.306 8.21136 15.1656C8.07976 15.2928 7.86776 15.3036 7.72262 15.1906C7.699 15.1722 7.67612 15.1526 7.65408 15.1317C7.21948 14.7226 7.28539 14.1226 7.68375 13.7981C11.0716 11.0386 16.0908 11.0374 19.4801 13.7981C19.8984 14.1388 19.9186 14.7453 19.5282 15.1143Z" fill="#1F0C40"/>
<path d="M13.5819 20.6418C14.1191 20.6418 14.5547 20.226 14.5547 19.7131C14.5547 19.2002 14.1191 18.7844 13.5819 18.7844C13.0446 18.7844 12.6091 19.2002 12.6091 19.7131C12.6091 20.226 13.0446 20.6418 13.5819 20.6418Z" fill="#1F0C40"/>
</g>
</svg>
