<svg width="946" height="586" viewBox="0 0 946 586" fill="none" xmlns="http://www.w3.org/2000/svg">
<g clip-path="url(#clip0)">
<path d="M722.909 25.2946C621.471 -73.7631 456.412 -73.7671 354.97 25.296C263.75 114.401 253.929 254.103 328.215 354.043L285.545 395.709C270.584 388.716 251.666 390.973 238.783 403.557L118.08 521.456C91.3186 547.576 91.2967 589.876 118.074 616.011C144.824 642.155 188.133 642.165 214.889 616.013L335.61 498.124C348.488 485.544 350.807 467.068 343.644 452.455L386.309 410.776C488.66 483.345 631.689 473.728 722.909 384.648C824.338 285.574 824.338 124.37 722.909 25.2946ZM316.244 479.212L195.521 597.103C179.476 612.785 153.505 612.8 137.438 597.097C121.379 581.424 121.369 556.058 137.441 540.372L258.146 422.47C263.482 417.257 272.169 417.255 277.504 422.47L316.243 460.304C321.582 465.517 321.582 474 316.244 479.212ZM325.926 431.934L306.556 413.016L345.55 374.942C348.608 378.257 351.75 381.506 354.969 384.648C358.188 387.792 361.513 390.862 364.91 393.85L325.926 431.934ZM703.543 365.735C612.803 454.345 465.82 455.099 374.332 365.735C282.954 276.499 283.498 132.938 374.332 44.2087C465.088 -44.4179 612.772 -44.4326 703.542 44.2087C794.293 132.854 794.293 277.092 703.543 365.735Z" fill="black"/>
</g>
<defs>
<clipPath id="clip0">
<rect width="946" height="586" fill="white"/>
</clipPath>
</defs>
</svg>
