<svg width="701" height="685" viewBox="0 0 701 685" fill="none" xmlns="http://www.w3.org/2000/svg">
<path d="M624.909 74.2946C523.471 -24.7631 358.412 -24.7671 256.97 74.296C165.75 163.401 155.929 303.103 230.215 403.043L187.545 444.709C172.584 437.716 153.666 439.973 140.783 452.557L20.0804 570.456C-6.68138 596.576 -6.70328 638.876 20.0736 665.011C46.8244 691.155 90.1332 691.165 116.889 665.013L237.61 547.124C250.488 534.544 252.807 516.068 245.644 501.455L288.309 459.776C390.66 532.345 533.689 522.728 624.909 433.648C726.338 334.574 726.338 173.37 624.909 74.2946ZM218.244 528.212L97.5208 646.103C81.4764 661.785 55.5045 661.8 39.4381 646.097C23.3786 630.424 23.369 605.058 39.4409 589.372L160.146 471.47C165.482 466.257 174.169 466.255 179.504 471.47L218.243 509.304C223.582 514.517 223.582 523 218.244 528.212ZM227.926 480.934L208.556 462.016L247.55 423.942C250.608 427.257 253.75 430.506 256.969 433.648C260.188 436.792 263.513 439.862 266.91 442.85L227.926 480.934ZM605.543 414.735C514.803 503.345 367.82 504.099 276.332 414.735C184.954 325.499 185.498 181.938 276.332 93.2087C367.088 4.58208 514.772 4.56738 605.542 93.2087C696.293 181.854 696.293 326.092 605.543 414.735Z" fill="black"/>
</svg>
