<svg width="59" height="59" viewBox="0 0 59 59" fill="none" xmlns="http://www.w3.org/2000/svg">
<path d="M48.3722 9.77429C48.6841 9.03669 48.7389 8.21563 48.5278 7.44312C48.3167 6.6706 47.852 5.99152 47.2083 5.51504C46.5646 5.03856 45.7794 4.79238 44.9789 4.81608C44.1785 4.83977 43.4092 5.13196 42.7948 5.64567C37.0517 2.44043 30.3445 1.41612 23.9065 2.76108C17.4685 4.10604 11.7324 7.72986 7.75276 12.9663C3.77317 18.2027 1.81762 24.6997 2.24566 31.2627C2.67369 37.8258 5.45654 44.0138 10.0826 48.6889C9.60886 49.4304 9.42551 50.3205 9.56767 51.1888C9.70983 52.0571 10.1675 52.8423 10.8529 53.3939C11.5383 53.9456 12.4032 54.2248 13.2818 54.1781C14.1604 54.1313 14.9908 53.7619 15.6138 53.1407C15.6401 53.1144 15.6599 53.0858 15.6876 53.0591C19.4441 55.2626 23.6732 56.5358 28.0219 56.7723C32.3706 57.0088 36.7127 56.2017 40.6861 54.4185C44.6594 52.6353 48.1486 49.9276 50.8625 46.5215C53.5764 43.1153 55.4363 39.1095 56.2869 34.8382C57.1809 30.3318 56.9241 25.6728 55.5405 21.2919C54.1568 16.911 51.6909 12.9497 48.3708 9.77429H48.3722ZM46.4685 7.00037C46.7898 7.32102 46.99 7.7432 47.0349 8.19494C47.0797 8.64667 46.9665 9.09997 46.7145 9.47755C46.4624 9.85512 46.0872 10.1336 45.6529 10.2654C45.2185 10.3973 44.7518 10.3744 44.3324 10.2006C43.913 10.0269 43.5669 9.713 43.3531 9.31257C43.1393 8.91213 43.071 8.44992 43.1598 8.00475C43.2487 7.55958 43.4892 7.15902 43.8404 6.87138C44.1916 6.58375 44.6317 6.42684 45.0857 6.42742C45.6042 6.42814 46.1014 6.63414 46.4685 7.00037ZM14.4734 51.9999C14.1995 52.2738 13.8504 52.4603 13.4704 52.5359C13.0904 52.6114 12.6965 52.5726 12.3386 52.4243C11.9807 52.2761 11.6748 52.025 11.4595 51.7028C11.2443 51.3807 11.1294 51.0019 11.1294 50.6145C11.1294 50.2271 11.2443 49.8483 11.4595 49.5262C11.6748 49.204 11.9807 48.953 12.3386 48.8047C12.6965 48.6564 13.0904 48.6176 13.4704 48.6931C13.8504 48.7687 14.1995 48.9552 14.4734 49.2292C14.6571 49.4101 14.8029 49.6258 14.9024 49.8636C15.0019 50.1015 15.0532 50.3567 15.0532 50.6145C15.0532 50.8723 15.0019 51.1276 14.9024 51.3654C14.8029 51.6032 14.6571 51.8189 14.4734 51.9999ZM54.7059 34.5243C53.9047 38.5431 52.154 42.312 49.5999 45.5165C47.0458 48.7211 43.7624 51.2684 40.0236 52.9458C36.2847 54.6233 32.199 55.3823 28.1072 55.1595C24.0154 54.9368 20.0362 53.7387 16.5016 51.6652C16.716 50.9731 16.7146 50.2321 16.4976 49.5408C16.2805 48.8495 15.8582 48.2407 15.2867 47.7953C14.7151 47.35 14.0216 47.0892 13.2982 47.0476C12.5748 47.0061 11.8559 47.1858 11.2372 47.5629C8.86942 45.1901 6.99374 42.373 5.7179 39.2732C4.44207 36.1734 3.79122 32.8522 3.80275 29.5001C3.80299 25.041 4.96349 20.6587 7.17019 16.7839C9.3769 12.9091 12.5539 9.67511 16.3888 7.39988C20.2238 5.12465 24.5848 3.88643 29.0432 3.80693C33.5016 3.72743 37.904 4.80938 41.8176 6.94644C41.4904 7.68747 41.4251 8.51778 41.6324 9.30086C41.8398 10.0839 42.3074 10.7732 42.9584 11.2552C43.6094 11.7373 44.405 11.9835 45.2145 11.9533C46.024 11.9232 46.7992 11.6185 47.4125 11.0893C50.4853 14.0781 52.7621 17.7876 54.0359 21.8804C55.3097 25.9733 55.54 30.3197 54.7059 34.5243Z" fill="#3A006E"/>
<path d="M29.5 10.3433C24.4211 10.349 19.5518 12.369 15.9605 15.9604C12.3692 19.5517 10.3491 24.421 10.3435 29.4999C10.3435 29.6119 10.3499 29.7239 10.3518 29.8359C9.6066 30.1632 8.99575 30.7354 8.62061 31.4576C8.24548 32.1799 8.12863 33.0087 8.28946 33.8065C8.45029 34.6043 8.87913 35.3231 9.50479 35.8436C10.1305 36.3641 10.9153 36.655 11.7291 36.6679C13.2733 40.4933 16.0109 43.7182 19.5347 45.8631C23.0586 48.0081 27.1805 48.9586 31.2878 48.5734C35.3951 48.1881 39.2684 46.4877 42.3319 43.7249C45.3954 40.9621 47.4855 37.2844 48.2915 33.2386C48.4128 32.6112 48.493 31.9973 48.5529 31.3948C49.4137 31.2232 50.181 30.7403 50.7081 30.0386C51.2352 29.3368 51.4852 28.4654 51.4103 27.5909C51.3353 26.7164 50.9407 25.9002 50.3018 25.2983C49.6629 24.6965 48.8246 24.3513 47.9472 24.3286C46.8294 20.2984 44.4188 16.7468 41.0859 14.2201C37.753 11.6934 33.6824 10.3313 29.5 10.3433ZM10.408 31.7152C10.6686 31.4562 10.9974 31.2765 11.3562 31.1971C11.3737 31.1929 11.3903 31.1869 11.4078 31.1814C11.8681 31.0897 12.346 31.1666 12.7543 31.3979C13.1627 31.6292 13.4743 31.9996 13.6323 32.4415C13.7904 32.8834 13.7843 33.3674 13.6153 33.8052C13.4463 34.243 13.1255 34.6055 12.7115 34.8265C12.2975 35.0475 11.8178 35.1124 11.36 35.0093C10.9021 34.9061 10.4966 34.6419 10.2173 34.2647C9.93809 33.8875 9.80371 33.4225 9.83871 32.9545C9.87371 32.4865 10.0758 32.0466 10.408 31.7152ZM44.9285 37.8544C43.3538 40.7608 40.9902 43.1633 38.1099 44.7854C35.2296 46.4075 31.9498 47.1831 28.648 47.0229C25.3463 46.8628 22.1569 45.7734 19.4471 43.8802C16.7374 41.987 14.6174 39.3669 13.3313 36.3218C14.0504 35.9803 14.6345 35.4081 14.9907 34.6961C15.3468 33.9842 15.4545 33.1736 15.2965 32.3934C15.1385 31.6132 14.7239 30.9083 14.1188 30.391C13.5137 29.8737 12.753 29.5738 11.9577 29.5391C11.9577 29.5266 11.9577 29.5137 11.9577 29.5013C11.9585 25.2727 13.4863 21.1867 16.26 17.995C19.0338 14.8034 22.8669 12.7207 27.054 12.1303C31.2411 11.54 35.5006 12.4816 39.0487 14.7819C42.5968 17.0822 45.1949 20.5865 46.3648 24.6499C45.6946 24.9547 45.1353 25.4595 44.7635 26.095C44.3918 26.7305 44.2259 27.4655 44.2887 28.199C44.3515 28.9326 44.6399 29.6287 45.1142 30.1917C45.5885 30.7548 46.2255 31.1572 46.9378 31.3437C46.8829 31.8636 46.8124 32.3914 46.7073 32.9297C46.3652 34.6513 45.7655 36.3115 44.9285 37.8544ZM49.2342 29.281C49.018 29.4975 48.7541 29.6604 48.4636 29.7567C48.1731 29.8529 47.8642 29.8797 47.5614 29.835C47.2587 29.7903 46.9707 29.6753 46.7204 29.4992C46.4702 29.3231 46.2646 29.0909 46.1203 28.821C45.976 28.5512 45.8969 28.2514 45.8893 27.9454C45.8817 27.6395 45.9459 27.3361 46.0768 27.0595C46.2076 26.7829 46.4014 26.5408 46.6426 26.3525C46.8839 26.1643 47.1659 26.0352 47.466 25.9756C47.4798 25.9756 47.4941 25.9728 47.5079 25.97C47.6205 25.9493 47.7346 25.9383 47.849 25.9373C48.2363 25.9377 48.6147 26.0528 48.9365 26.2682C49.2583 26.4836 49.5091 26.7895 49.6571 27.1474C49.805 27.5052 49.8436 27.8989 49.768 28.2786C49.6923 28.6584 49.5057 29.0072 49.2319 29.281H49.2342Z" fill="#3A006E"/>
<path d="M24.6256 24.6252C23.6616 25.5893 23.0051 26.8176 22.7391 28.1547C22.4732 29.4919 22.6097 30.8779 23.1314 32.1375C23.6532 33.3971 24.5367 34.4736 25.6703 35.2311C26.8039 35.9885 28.1367 36.3928 29.5 36.3928C30.8634 36.3928 32.1961 35.9885 33.3297 35.2311C34.4633 34.4736 35.3468 33.3971 35.8686 32.1375C36.3903 30.8779 36.5269 29.4919 36.2609 28.1547C35.9949 26.8176 35.3384 25.5893 34.3744 24.6252C33.0807 23.3343 31.3276 22.6094 29.5 22.6094C27.6724 22.6094 25.9194 23.3343 24.6256 24.6252ZM33.2336 33.2333C32.4953 33.9709 31.5549 34.4731 30.5313 34.6763C29.5076 34.8796 28.4467 34.7748 27.4826 34.3752C26.5185 33.9756 25.6945 33.2991 25.1148 32.4313C24.535 31.5635 24.2256 30.5433 24.2256 29.4997C24.2256 28.456 24.535 27.4358 25.1148 26.568C25.6945 25.7002 26.5185 25.0237 27.4826 24.6241C28.4467 24.2245 29.5076 24.1197 30.5313 24.323C31.5549 24.5262 32.4953 25.0284 33.2336 25.7661C34.2223 26.7571 34.7775 28.0998 34.7775 29.4997C34.7775 30.8995 34.2223 32.2422 33.2336 33.2333Z" fill="#3A006E"/>
</svg>
