<svg width="56" height="56" viewBox="0 0 56 56" fill="none" xmlns="http://www.w3.org/2000/svg">
<path d="M27.4483 41.8656C27.0014 41.7729 24.9052 42.1339 22.9076 41.0573C22.5085 40.8422 22.0111 40.9915 21.796 41.3903C21.5811 41.7892 21.7302 42.2867 22.129 42.5019C22.2991 42.5935 22.4698 42.6769 22.6407 42.7526C20.9668 43.4879 19.6145 44.815 18.8245 46.7767C18.075 44.9416 16.7904 43.5464 15.0067 42.7505C16.8258 41.9387 18.0914 40.519 18.8245 38.7246C18.9816 39.1122 19.1249 39.3815 19.1303 39.3926C19.3362 39.7961 19.8306 39.9563 20.2341 39.7504C20.6377 39.5445 20.7979 39.0503 20.5919 38.6466C20.5895 38.6357 19.5963 36.8229 19.7136 34.4102C19.7807 33.9579 19.4637 33.5084 18.9804 33.4195C18.5405 33.3328 18.0531 33.6119 17.9398 34.106C17.8812 34.3621 18.3055 38.7925 15.0904 40.8481C12.9972 42.1834 10.621 41.7684 10.1782 41.8688C9.2423 42.0819 9.24306 43.4193 10.1782 43.6322C10.6155 43.7308 13.0384 43.3169 15.1321 44.6798C18.2414 46.7057 17.8983 51.0184 17.9191 51.2116C17.9191 52.2232 19.3647 52.4509 19.6838 51.4639C19.7917 51.1278 19.3377 46.8505 22.4078 44.7483C24.4304 43.3623 26.9371 43.6966 27.3733 43.6474C28.3714 43.5353 28.4607 42.0798 27.4483 41.8656Z" fill="#1F0C40"/>
<path d="M55.1211 25.8593C53.6212 25.6927 42.9297 27.1945 38.2571 17.384C35.8008 12.2237 36.4308 7.54563 36.2969 6.95873C36.1763 6.4311 35.6775 6.11501 35.2005 6.17593C34.6566 6.23751 34.2958 6.68791 34.2958 7.14138V9.27026C33.9251 16.5888 30.5946 22.8188 23.601 25.0116C19.5623 26.2785 16.0562 25.7313 15.4016 25.8745C14.3518 26.1127 14.3439 27.6204 15.4127 27.8579C16.328 28.051 23.214 26.9354 28.5614 31.3764C28.9101 31.6658 29.4274 31.6178 29.7169 31.2694C30.0063 30.9207 29.9585 30.4036 29.6099 30.114C27.775 28.5901 25.5758 27.5012 23.0593 26.8686C29.6845 25.1999 33.751 20.4707 35.3075 13.8463C36.851 20.4301 40.8838 25.2012 47.5802 26.8616C40.9507 28.5205 36.828 33.2457 35.298 39.8519C34.7283 37.4306 33.7781 35.1131 32.3496 33.0892C32.0884 32.7189 31.5765 32.6307 31.2062 32.8919C30.8359 33.1532 30.7477 33.665 31.0089 34.0353C31.5125 34.7486 31.9656 35.5259 32.3563 36.3457C34.6739 41.2146 34.2644 46.1682 34.2979 46.6461C34.3845 47.8667 36.376 47.9282 36.3136 46.4189C36.2011 43.6986 36.4121 34.4829 43.8557 30.1099C48.8785 27.162 54.466 28.0231 55.2118 27.8554C56.336 27.6002 56.2144 25.982 55.1211 25.8593Z" fill="#1F0C40"/>
<path d="M17.9713 12.3641C17.4158 12.2489 13.0362 13.0243 11.0797 9.07713C10.1599 7.22541 10.2238 5.16654 10.2364 4.90841C10.3022 4.46162 9.99204 4.00738 9.50237 3.91802C9.0652 3.83151 8.57553 4.10888 8.46232 4.60599C8.40392 4.86083 8.82796 9.29129 5.61311 11.3469C3.59339 12.6353 1.23614 12.3025 0.791856 12.352C-0.20641 12.4656 -0.287128 13.9059 0.700856 14.1309C1.17795 14.2383 3.54953 13.808 5.65478 15.1785C7.8985 16.6402 8.36476 19.3247 8.44187 20.809C8.45248 21.6573 8.41496 21.756 8.48157 21.9627C8.60418 22.3421 8.95079 22.5969 9.34389 22.5969C9.79517 22.5971 10.1608 22.2634 10.2332 21.8544C10.2833 21.574 10.0643 19.4407 11.1034 17.3761C11.3071 16.9713 11.1441 16.4781 10.7394 16.2743C10.3346 16.0705 9.84143 16.2336 9.63767 16.6383C9.53398 16.8445 9.43762 17.0583 9.3487 17.2788C8.59959 15.4425 7.31487 14.0463 5.52965 13.2493C7.34867 12.4372 8.61414 11.0179 9.34728 9.22337C10.08 11.031 11.3353 12.4442 13.1621 13.2522C12.983 13.3313 12.804 13.4184 12.6262 13.5145C12.2276 13.7301 12.0794 14.2278 12.295 14.6265C12.5106 15.0251 13.0083 15.1733 13.4071 14.9578C15.3434 13.9102 17.459 14.1951 17.8961 14.1464C18.8997 14.0314 18.9758 12.5766 17.9713 12.3641Z" fill="#1F0C40"/>
</svg>
